<svg xmlns="http://www.w3.org/2000/svg" viewBox="0 0 45 45" shape-rendering="crispEdges"><path fill="#0c0f12" d="M4 4h7v1h-7zM15 4h2v1h-2zM18 4h3v1h-3zM22 4h1v1h-1zM24 4h5v1h-5zM32 4h1v1h-1zM34 4h7v1h-7zM4 5h1v1h-1zM10 5h1v1h-1zM13 5h1v1h-1zM17 5h3v1h-3zM23 5h1v1h-1zM25 5h1v1h-1zM28 5h1v1h-1zM31 5h1v1h-1zM34 5h1v1h-1zM40 5h1v1h-1zM4 6h1v1h-1zM6 6h3v1h-3zM10 6h1v1h-1zM12 6h2v1h-2zM15 6h1v1h-1zM17 6h1v1h-1zM19 6h2v1h-2zM22 6h4v1h-4zM31 6h1v1h-1zM34 6h1v1h-1zM36 6h3v1h-3zM40 6h1v1h-1zM4 7h1v1h-1zM6 7h3v1h-3zM10 7h1v1h-1zM12 7h1v1h-1zM16 7h2v1h-2zM19 7h6v1h-6zM26 7h1v1h-1zM29 7h2v1h-2zM32 7h1v1h-1zM34 7h1v1h-1zM36 7h3v1h-3zM40 7h1v1h-1zM4 8h1v1h-1zM6 8h3v1h-3zM10 8h1v1h-1zM12 8h1v1h-1zM14 8h2v1h-2zM17 8h2v1h-2zM23 8h1v1h-1zM26 8h2v1h-2zM29 8h1v1h-1zM32 8h1v1h-1zM34 8h1v1h-1zM36 8h3v1h-3zM40 8h1v1h-1zM4 9h1v1h-1zM10 9h1v1h-1zM12 9h2v1h-2zM15 9h1v1h-1zM18 9h2v1h-2zM22 9h1v1h-1zM25 9h2v1h-2zM29 9h3v1h-3zM34 9h1v1h-1zM40 9h1v1h-1zM4 10h7v1h-7zM12 10h1v1h-1zM14 10h1v1h-1zM16 10h1v1h-1zM18 10h1v1h-1zM20 10h1v1h-1zM22 10h1v1h-1zM24 10h1v1h-1zM26 10h1v1h-1zM28 10h1v1h-1zM30 10h1v1h-1zM32 10h1v1h-1zM34 10h7v1h-7zM12 11h2v1h-2zM19 11h2v1h-2zM25 11h2v1h-2zM28 11h1v1h-1zM30 11h2v1h-2zM4 12h1v1h-1zM6 12h5v1h-5zM13 12h1v1h-1zM16 12h4v1h-4zM22 12h3v1h-3zM29 12h3v1h-3zM34 12h5v1h-5zM4 13h1v1h-1zM6 13h1v1h-1zM8 13h2v1h-2zM11 13h2v1h-2zM15 13h2v1h-2zM18 13h3v1h-3zM25 13h3v1h-3zM29 13h1v1h-1zM32 13h1v1h-1zM35 13h1v1h-1zM38 13h2v1h-2zM5 14h4v1h-4zM10 14h1v1h-1zM12 14h3v1h-3zM17 14h1v1h-1zM24 14h2v1h-2zM30 14h3v1h-3zM34 14h1v1h-1zM36 14h1v1h-1zM38 14h3v1h-3zM4 15h1v1h-1zM8 15h1v1h-1zM11 15h6v1h-6zM18 15h1v1h-1zM20 15h1v1h-1zM22 15h1v1h-1zM25 15h1v1h-1zM31 15h5v1h-5zM40 15h1v1h-1zM8 16h1v1h-1zM10 16h1v1h-1zM15 16h1v1h-1zM17 16h2v1h-2zM20 16h3v1h-3zM24 16h1v1h-1zM27 16h4v1h-4zM32 16h3v1h-3zM36 16h2v1h-2zM39 16h2v1h-2zM4 17h3v1h-3zM12 17h1v1h-1zM15 17h1v1h-1zM20 17h2v1h-2zM23 17h1v1h-1zM27 17h1v1h-1zM29 17h1v1h-1zM32 17h2v1h-2zM35 17h1v1h-1zM40 17h1v1h-1zM6 18h2v1h-2zM10 18h1v1h-1zM16 18h1v1h-1zM18 18h2v1h-2zM21 18h1v1h-1zM25 18h1v1h-1zM30 18h3v1h-3zM34 18h4v1h-4zM39 18h2v1h-2zM5 19h3v1h-3zM11 19h1v1h-1zM19 19h1v1h-1zM21 19h2v1h-2zM24 19h2v1h-2zM27 19h1v1h-1zM30 19h2v1h-2zM33 19h1v1h-1zM35 19h2v1h-2zM40 19h1v1h-1zM4 20h2v1h-2zM7 20h2v1h-2zM10 20h1v1h-1zM12 20h2v1h-2zM15 20h6v1h-6zM25 20h1v1h-1zM27 20h5v1h-5zM33 20h2v1h-2zM36 20h1v1h-1zM38 20h3v1h-3zM4 21h4v1h-4zM9 21h1v1h-1zM11 21h1v1h-1zM15 21h1v1h-1zM18 21h2v1h-2zM22 21h1v1h-1zM24 21h1v1h-1zM27 21h1v1h-1zM33 21h1v1h-1zM39 21h1v1h-1zM6 22h5v1h-5zM13 22h1v1h-1zM16 22h1v1h-1zM19 22h3v1h-3zM23 22h1v1h-1zM26 22h1v1h-1zM28 22h1v1h-1zM30 22h2v1h-2zM34 22h1v1h-1zM37 22h1v1h-1zM39 22h2v1h-2zM5 23h1v1h-1zM11 23h2v1h-2zM15 23h1v1h-1zM17 23h3v1h-3zM23 23h5v1h-5zM30 23h1v1h-1zM32 23h1v1h-1zM34 23h2v1h-2zM40 23h1v1h-1zM4 24h1v1h-1zM6 24h1v1h-1zM8 24h1v1h-1zM10 24h3v1h-3zM19 24h6v1h-6zM26 24h1v1h-1zM28 24h2v1h-2zM33 24h2v1h-2zM36 24h2v1h-2zM4 25h2v1h-2zM9 25h1v1h-1zM11 25h2v1h-2zM14 25h1v1h-1zM16 25h1v1h-1zM20 25h1v1h-1zM23 25h1v1h-1zM27 25h2v1h-2zM32 25h2v1h-2zM37 25h1v1h-1zM39 25h2v1h-2zM4 26h1v1h-1zM8 26h3v1h-3zM13 26h2v1h-2zM17 26h1v1h-1zM19 26h2v1h-2zM22 26h1v1h-1zM24 26h1v1h-1zM26 26h1v1h-1zM30 26h2v1h-2zM33 26h5v1h-5zM39 26h2v1h-2zM5 27h4v1h-4zM11 27h2v1h-2zM15 27h3v1h-3zM20 27h1v1h-1zM23 27h2v1h-2zM30 27h1v1h-1zM32 27h1v1h-1zM34 27h3v1h-3zM39 27h2v1h-2zM10 28h2v1h-2zM17 28h1v1h-1zM22 28h1v1h-1zM24 28h6v1h-6zM34 28h2v1h-2zM38 28h2v1h-2zM4 29h1v1h-1zM11 29h7v1h-7zM19 29h2v1h-2zM27 29h3v1h-3zM32 29h2v1h-2zM35 29h1v1h-1zM38 29h1v1h-1zM4 30h1v1h-1zM6 30h3v1h-3zM10 30h3v1h-3zM15 30h1v1h-1zM21 30h2v1h-2zM24 30h2v1h-2zM28 30h5v1h-5zM34 30h1v1h-1zM38 30h3v1h-3zM4 31h1v1h-1zM6 31h4v1h-4zM12 31h1v1h-1zM14 31h1v1h-1zM17 31h1v1h-1zM20 31h1v1h-1zM22 31h1v1h-1zM25 31h4v1h-4zM31 31h2v1h-2zM34 31h1v1h-1zM39 31h2v1h-2zM4 32h1v1h-1zM6 32h2v1h-2zM9 32h2v1h-2zM13 32h2v1h-2zM16 32h1v1h-1zM18 32h1v1h-1zM20 32h3v1h-3zM24 32h1v1h-1zM26 32h1v1h-1zM28 32h9v1h-9zM39 32h2v1h-2zM12 33h1v1h-1zM15 33h2v1h-2zM21 33h1v1h-1zM23 33h1v1h-1zM25 33h1v1h-1zM27 33h1v1h-1zM29 33h1v1h-1zM31 33h2v1h-2zM36 33h2v1h-2zM39 33h1v1h-1zM4 34h7v1h-7zM14 34h2v1h-2zM18 34h2v1h-2zM21 34h1v1h-1zM25 34h1v1h-1zM30 34h1v1h-1zM32 34h1v1h-1zM34 34h1v1h-1zM36 34h1v1h-1zM38 34h1v1h-1zM40 34h1v1h-1zM4 35h1v1h-1zM10 35h1v1h-1zM12 35h3v1h-3zM18 35h2v1h-2zM21 35h7v1h-7zM30 35h3v1h-3zM36 35h2v1h-2zM40 35h1v1h-1zM4 36h1v1h-1zM6 36h3v1h-3zM10 36h1v1h-1zM12 36h1v1h-1zM14 36h2v1h-2zM17 36h2v1h-2zM20 36h1v1h-1zM25 36h1v1h-1zM27 36h1v1h-1zM29 36h8v1h-8zM38 36h3v1h-3zM4 37h1v1h-1zM6 37h3v1h-3zM10 37h1v1h-1zM12 37h1v1h-1zM14 37h3v1h-3zM18 37h2v1h-2zM22 37h1v1h-1zM24 37h4v1h-4zM30 37h1v1h-1zM32 37h3v1h-3zM36 37h1v1h-1zM38 37h1v1h-1zM40 37h1v1h-1zM4 38h1v1h-1zM6 38h3v1h-3zM10 38h1v1h-1zM12 38h1v1h-1zM15 38h1v1h-1zM18 38h3v1h-3zM22 38h2v1h-2zM25 38h2v1h-2zM29 38h1v1h-1zM31 38h1v1h-1zM33 38h1v1h-1zM38 38h3v1h-3zM4 39h1v1h-1zM10 39h1v1h-1zM14 39h1v1h-1zM18 39h2v1h-2zM22 39h4v1h-4zM28 39h1v1h-1zM30 39h4v1h-4zM36 39h1v1h-1zM40 39h1v1h-1zM4 40h7v1h-7zM12 40h1v1h-1zM14 40h2v1h-2zM17 40h1v1h-1zM19 40h6v1h-6zM28 40h3v1h-3zM33 40h2v1h-2zM36 40h1v1h-1zM39 40h2v1h-2z"/></svg>
